<svg xmlns="http://www.w3.org/2000/svg" width="21" height="20" fill="none" viewBox="0 0 21 20"><path stroke="#8245E5" d="M17.5138 10.3192C17.5138 14.1567 14.3914 17.2706 10.536 17.2706C6.68053 17.2706 3.55811 14.1567 3.55811 10.3192C3.55811 6.48172 6.68053 3.3678 10.536 3.3678C14.3914 3.3678 17.5138 6.48172 17.5138 10.3192Z"/><path stroke="#8245E5" d="M14.1358 10.3193C14.1358 12.298 12.5255 13.9052 10.5354 13.9052C8.54533 13.9052 6.93506 12.298 6.93506 10.3193C6.93506 8.34052 8.54533 6.7334 10.5354 6.7334C12.5255 6.7334 14.1358 8.34052 14.1358 10.3193Z"/><line x1="14.033" x2="20.064" y1="9.819" y2="9.819" stroke="#8245E5"/><line x1="10.35" x2="10.35" y1="6.409" y2=".559" stroke="#8245E5"/><line x1="10.35" x2="10.35" y1="19.863" y2="14.014" stroke="#8245E5"/><line x1=".764" x2="6.795" y1="9.819" y2="9.819" stroke="#8245E5"/></svg>