<svg width="142" height="60" viewBox="0 0 142 60" fill="none" xmlns="http://www.w3.org/2000/svg">
<path d="M86.3552 30.2704C85.5964 30.9317 84.5934 31.7976 83.3963 32.8125C80.5575 35.2192 76.6336 38.4581 72.2883 41.7919C67.9384 45.1292 63.1914 48.5422 58.7032 51.3076C54.1694 54.101 50.0705 56.125 46.9795 56.8359C35.0281 59.5845 23.9367 56.5542 15.8302 50.9703C7.65067 45.3362 2.79001 37.324 2.79001 30.336C2.79001 23.3458 7.66635 15.2773 15.8529 9.61573C23.965 4.00569 35.048 0.979891 46.9621 3.83207C55.1906 5.80192 65.3537 12.6468 73.6496 19.2398C77.7521 22.5002 81.3198 25.6345 83.8622 27.9543C84.8634 28.8677 85.7044 29.6538 86.3552 30.2704Z" stroke="white" stroke-width="4"/>
<path d="M55.6846 30.3358C56.4435 29.6745 57.4464 28.8086 58.6435 27.7937C61.4823 25.387 65.4062 22.1481 69.7516 18.8143C74.1014 15.477 78.8484 12.064 83.3366 9.29864C87.8704 6.50516 91.9693 4.48119 95.0603 3.77031C107.012 1.02167 118.103 4.05196 126.21 9.63587C134.389 15.27 139.25 23.2822 139.25 30.2702C139.25 37.2605 134.373 45.3289 126.187 50.9905C118.075 56.6005 106.992 59.6263 95.0777 56.7741C86.8493 54.8043 76.6862 47.9594 68.3902 41.3664C64.2878 38.106 60.72 34.9717 58.1776 32.6519C57.1765 31.7385 56.3354 30.9524 55.6846 30.3358Z" stroke="white" stroke-width="4"/>
<path d="M75.4469 30.3031C75.4469 32.6617 73.5372 34.5712 71.1847 34.5712C68.8323 34.5712 66.9226 32.6617 66.9226 30.3031C66.9226 27.9445 68.8323 26.035 71.1847 26.035C73.5372 26.035 75.4469 27.9445 75.4469 30.3031Z" stroke="white" stroke-width="3"/>
</svg>
